<svg xmlns="http://www.w3.org/2000/svg" viewBox="0 0 800 500">
  <defs>
    <linearGradient id="sky" x1="0" y1="0" x2="0" y2="1">
      <stop offset="0" stop-color="#0B1F4A"/>
      <stop offset="1" stop-color="#16325C"/>
    </linearGradient>
  </defs>
  <rect width="800" height="500" fill="url(#sky)"/>
  <circle cx="120" cy="380" r="90" fill="#102A4A"/>
  <circle cx="680" cy="400" r="110" fill="#102A4A"/>
  <rect x="0" y="400" width="800" height="100" fill="#14301A"/>
  <ellipse cx="80" cy="360" rx="40" ry="90" fill="#1B4A2A"/>
  <ellipse cx="720" cy="350" rx="50" ry="110" fill="#1B4A2A"/>
  <ellipse cx="200" cy="390" rx="30" ry="70" fill="#245C34"/>
  <g fill="#F4D27A">
    <circle cx="140" cy="220" r="4"/><circle cx="240" cy="160" r="3"/>
    <circle cx="560" cy="180" r="4"/><circle cx="640" cy="240" r="3"/>
    <circle cx="300" cy="280" r="3"/><circle cx="480" cy="260" r="3"/>
    <circle cx="360" cy="140" r="2.5"/><circle cx="520" cy="120" r="3"/>
  </g>
  <ellipse cx="400" cy="250" rx="26" ry="40" fill="#fff"/>
  <circle cx="400" cy="188" r="22" fill="#F8D7C4"/>
  <path d="M382 186 Q400 168 418 186" fill="#E11D2E"/>
  <path d="M400 170 Q424 176 422 198" fill="#F4F1EA"/>
  <circle cx="393" cy="188" r="3" fill="#2F8F4E"/>
  <circle cx="407" cy="188" r="3" fill="#2F8F4E"/>
  <path d="M392 198 Q400 204 408 198" stroke="#C45C6A" fill="none" stroke-width="1.5"/>
  <ellipse cx="372" cy="230" rx="10" ry="16" fill="#E8F7FF" opacity=".8"/>
  <ellipse cx="428" cy="230" rx="10" ry="16" fill="#E8F7FF" opacity=".8"/>
  <ellipse cx="388" cy="312" rx="8" ry="6" fill="#E11D2E"/>
  <ellipse cx="412" cy="312" rx="8" ry="6" fill="#E11D2E"/>
  <g fill="#FF8AB5" opacity=".85">
    <circle cx="386" cy="248" r="2"/><circle cx="410" cy="256" r="2"/>
    <circle cx="398" cy="268" r="1.6"/>
  </g>
</svg>
